# xmcd
#
# Track frame offsets:
#	150
#	16582
#	37017
#	51857
#	64645
#	82557
#	100332
#	115300
#	135550
#	149050
#	156475
#	169655
#
# Disc length: 2579 seconds
#
# Revision: 2
# Processed by: cddbd v1.5.1PL0 Copyright (c) Steve Scherf et al.
# Submitted via: dBpowerAMP V4.0
#
DISCID=9b0a110c
DTITLE=Varios - Pe de Serra Sudestino
DYEAR=2000
DGENRE=Forro
TTITLE0=Sérgio Boi/Farinha
TTITLE1=Trio Nordestino/Carro de Policia
TTITLE2=Trio Xamego/E so voce querer
TTITLE3=Trio Forrozão/Xote Capixaba
TTITLE4=Saisse e Os Bois/Menino Bom
TTITLE5=Trio Virgulino/Coladinho Coladinho
TTITLE6=Robertinha do Recife/Sobremesa
TTITLE7=Forrótotal/Forrototal
TTITLE8=Hudson de Souza/Mensageiro Beija-Flor
TTITLE9=Trio Xapadão/Doidinho por Forro
TTITLE10=Trio Sabiá/Feliz de Novo
TTITLE11=Sérgio Boi/Bem Bom
EXTD=
EXTT0=
EXTT1=
EXTT2=
EXTT3=
EXTT4=
EXTT5=
EXTT6=
EXTT7=
EXTT8=
EXTT9=
EXTT10=
EXTT11=
PLAYORDER=
